<svg width="2159" height="1924" viewBox="0 0 2159 1924" fill="none" xmlns="http://www.w3.org/2000/svg">
<path d="M1023.73 0.0524902C1023.47 0.319092 1012.27 0.719116 998.667 1.25244C939.2 3.11914 882.533 10.0525 820.133 23.3859C726.533 43.1191 657.6 65.5192 594 96.7191C580.8 103.252 566.4 110.719 562 113.386C557.6 116.186 544.933 123.386 533.867 129.386C500.533 147.786 469.067 168.453 434 194.853C345.467 261.386 269.867 340.052 216.933 420.319C212 427.786 208 434.319 208 434.719C208 435.252 206.933 437.252 205.467 439.119C202 444.052 190 467.519 187.2 474.719C185.733 478.853 181.467 484.186 173.733 491.786C162.8 502.319 151.067 518.186 143.733 532.052C139.333 540.453 135.067 557.252 134.267 569.386C133.467 580.319 128.933 595.519 117.333 626.052C112.8 638.186 107.6 651.786 105.867 656.453C104.133 660.986 100.533 669.119 97.7333 674.319L92.6667 683.919L76.2667 692.586C62.6667 699.919 57.6 703.652 46.1333 714.319C24.6667 734.453 16.2667 749.119 7.86667 780.986C2.66667 801.119 0 820.719 0 840.052C0 860.586 11.3333 901.653 23.6 925.119C30.1333 937.919 44.6667 957.386 53.4667 965.253L60.4 971.519L60.6667 1006.45C60.9333 1047.65 63.7333 1094.45 66.6667 1106.05C67.3333 1108.59 69.0667 1117.92 70.6667 1126.72C72.1333 1135.52 74.9333 1148.05 76.6667 1154.72C78.4 1161.25 80.9333 1171.79 82.4 1178.05C86.9333 1198.59 109.2 1271.25 114.667 1284.05C115.333 1285.52 118 1292.85 120.8 1300.45C123.467 1307.92 126.667 1315.39 127.867 1317.12C129.2 1318.72 131.867 1325.25 133.867 1331.79C135.867 1338.19 141.2 1352.59 146 1363.79C196.4 1484.19 299.2 1615.39 416.667 1709.52C458.267 1742.85 499.467 1771.39 539.733 1794.72C540.933 1795.52 546.267 1798.59 551.6 1801.79C556.8 1804.85 561.733 1807.39 562.4 1807.39C563.2 1807.39 564 1807.92 564.267 1808.59C564.4 1809.25 566.8 1810.85 569.467 1812.19C584.667 1819.92 606.933 1830.85 619.6 1836.72C627.467 1840.45 635.067 1844.05 636.267 1844.72C637.6 1845.52 639.2 1846.05 640 1846.05C640.667 1846.05 644.4 1847.52 648.267 1849.25C660.133 1854.72 690.4 1865.65 708 1870.72C717.2 1873.39 727.733 1876.72 731.333 1878.19C735.067 1879.52 741.333 1881.25 745.333 1882.05C751.6 1883.25 771.6 1888.99 782.667 1892.72C784.533 1893.39 792 1895.12 799.333 1896.72C806.667 1898.32 816.267 1900.32 820.667 1901.39C833.467 1904.32 842.4 1905.92 857.333 1907.92C865.067 1908.99 873.2 1910.19 875.333 1910.59C895.333 1914.05 897.867 1914.32 948 1918.85C995.6 1923.12 1074.53 1924.45 1104 1921.39C1140.13 1917.65 1184.4 1910.32 1226 1901.12C1254 1894.99 1303.73 1879.92 1335.33 1868.05C1345.6 1864.19 1361.47 1858.32 1370.67 1854.99C1394.13 1846.32 1412.67 1839.12 1421.73 1834.99C1426 1832.99 1429.73 1831.39 1430 1831.39C1431.73 1831.39 1475.07 1809.12 1492.8 1799.25C1546.53 1769.39 1604.4 1727.52 1654 1682.85C1673.87 1664.99 1722.13 1616.19 1736.13 1599.79C1742.93 1591.92 1748.8 1585.12 1749.2 1584.72C1751.33 1582.99 1772.67 1555.92 1781.87 1543.39C1787.6 1535.65 1793.07 1528.19 1794.27 1526.85C1803.2 1515.92 1842.67 1454.45 1842.67 1451.52C1842.67 1450.99 1843.33 1449.92 1844.27 1448.99C1846.4 1446.85 1856.67 1428.05 1868.8 1403.65L1879.07 1383.39L1886.53 1383.25C1896.27 1383.12 1903.07 1382.45 1909.07 1380.85C1911.73 1380.19 1917.33 1379.25 1921.33 1378.72C1953.33 1374.72 1982.53 1363.79 2003.33 1347.92C2014.27 1339.65 2037.07 1314.45 2046.13 1300.72C2048 1297.92 2050.27 1295.25 2051.07 1294.99C2052 1294.59 2059.33 1291.65 2067.33 1288.32C2091.47 1278.59 2095.47 1276.05 2110.4 1260.72C2117.87 1252.99 2125.33 1244.32 2126.8 1241.39C2128.27 1238.45 2131.2 1233.39 2133.2 1230.05C2138.8 1220.85 2148.4 1198.99 2154 1182.72C2159.47 1166.45 2159.73 1159.92 2154.8 1150.45C2148.67 1138.72 2139.47 1132.45 2124.27 1129.79C2115.2 1128.32 2110.53 1128.85 2096.4 1133.39C2093.47 1134.32 2093.33 1134.05 2093.2 1126.59C2093.07 1118.59 2092.93 1116.32 2091.6 1109.39C2091.2 1107.12 2089.6 1098.19 2088 1089.52C2084.4 1068.05 2080.8 1056.72 2073.87 1043.92C2066.4 1029.92 2052.13 1014.59 2041.73 1009.12C2024.4 999.919 2005.47 995.386 1988.4 996.186L1978.4 996.719L1979.33 985.653C1980.53 972.853 1980.53 932.586 1979.33 917.386C1973.87 848.186 1955.73 755.786 1933.33 684.052C1923.73 653.386 1916.93 631.919 1916.27 630.853C1915.87 630.186 1913.07 622.453 1910 613.519C1898.4 580.186 1884.27 546.986 1867.6 514.052C1845.2 469.919 1837.73 457.252 1812.8 421.386C1802.8 407.119 1771.47 367.519 1758.8 353.252C1756.13 350.319 1751.07 344.319 1747.33 340.052C1731.73 321.652 1677.33 266.052 1656.67 247.386C1610 205.119 1566 170.853 1542 158.186C1537.6 155.786 1529.47 151.252 1524 148.052C1483.33 124.052 1436.53 100.453 1394.67 82.7191C1384.8 78.5858 1374.93 74.3191 1372.67 73.3859C1351.6 64.3191 1291.07 42.9858 1262.67 34.7191C1255.73 32.7191 1248.53 30.5858 1246.67 29.9192C1244.8 29.2524 1236.13 26.9858 1227.33 24.7191C1166.53 8.98584 1110.8 1.25244 1051.07 0.319092C1036.13 0.0524902 1023.87 -0.0808105 1023.73 0.0524902ZM1046.67 100.719C1049.6 113.919 1057.73 133.119 1064.93 144.319C1075.87 161.252 1097.07 177.252 1117.07 183.652C1122.27 185.252 1126.67 186.986 1126.67 187.386C1126.67 187.786 1121.73 189.519 1115.6 191.252C1104.4 194.586 1091.47 200.319 1086.4 204.453C1080.4 209.119 1068.93 221.252 1065.6 226.586C1054.93 243.119 1048.4 256.986 1045.73 269.119C1043.47 278.986 1042.27 278.986 1040.67 268.853C1039.07 259.519 1032.53 241.119 1027.2 231.519C1020.13 219.119 1005.87 205.252 993.333 199.119C981.867 193.519 963.067 186.052 960.133 186.052C956.8 186.052 960 184.052 970 180.052C983.733 174.453 1004.4 164.186 1011.07 159.652C1028.93 147.252 1038 128.586 1042.13 96.0525C1043.07 88.5858 1044.13 89.6525 1046.67 100.719ZM753.733 337.519C765.333 356.052 780.933 367.786 802 373.519L810 375.786L797.333 379.919C771.333 388.586 752.933 406.853 744.933 432.052C743.733 435.652 742.667 440.186 742.4 442.052C742.133 444.052 740.8 440.586 738.933 432.986C734.667 415.519 725.867 402.052 713.333 394.052C709.733 391.786 699.733 387.519 691.2 384.719L675.733 379.652L684.933 376.719C715.6 366.853 734.933 346.586 741.467 317.386L743.2 309.786L746 319.652C747.6 325.119 751.067 333.119 753.733 337.519ZM1434.93 390.986C1442.8 394.453 1445.87 402.052 1444.93 415.252C1444.67 420.986 1442.67 430.586 1440.67 436.853C1436.8 448.586 1436.4 449.652 1432.13 459.386C1430.8 462.719 1427.73 469.919 1425.6 475.386C1423.33 480.853 1419.2 490.586 1416.27 496.853C1407.47 515.519 1402.4 534.853 1400.8 555.386C1400.13 564.186 1402.53 570.719 1407.2 572.853C1410 574.186 1411.33 573.919 1415.6 571.252C1421.6 567.652 1430.93 560.186 1442 550.186C1460.8 533.119 1485.47 520.719 1500.93 520.719C1510 520.719 1525.6 524.586 1531.33 528.319C1541.6 534.853 1550.53 546.719 1555.33 560.186C1558.13 567.919 1557.47 581.119 1552.8 609.386C1547.07 644.319 1546.13 655.519 1548.13 664.719C1550.93 677.786 1556.53 685.386 1567.2 690.719C1575.2 694.719 1587.07 695.253 1594.13 691.919C1599.07 689.519 1606.4 681.386 1613.6 670.052C1616.13 666.052 1621.47 659.786 1625.2 656.186C1631.6 650.319 1632.67 649.786 1637.07 650.586C1644.27 651.652 1648.67 656.853 1648.53 663.786C1648.4 670.853 1638.8 699.919 1631.07 716.586C1627.73 723.652 1624.27 731.119 1623.33 733.386C1606.67 770.453 1593.2 790.586 1569.33 813.919C1554.8 828.052 1534.53 838.186 1517.33 839.919C1508.27 840.853 1492.27 838.319 1484.53 834.719C1477.73 831.652 1470.67 824.319 1463.33 812.719C1451.07 793.119 1452.93 742.986 1467.73 697.386C1471.6 685.119 1472.53 680.319 1472.93 668.052C1473.33 654.719 1473.2 652.986 1470.4 648.186C1464.4 637.786 1450.8 634.453 1436 639.386C1425.47 642.853 1422.4 644.719 1414.67 652.586C1392.27 675.253 1389.73 684.853 1388.67 752.052C1387.73 816.853 1386 826.586 1372.67 840.186C1362.53 850.453 1353.2 854.453 1338.93 854.453C1320.13 854.453 1305.07 842.719 1299.33 823.386C1294.67 807.652 1292.67 803.253 1289.6 801.253C1285.6 798.719 1284.13 799.786 1278.4 809.919C1273.33 818.719 1253.47 841.919 1244.4 849.519C1225.47 865.519 1207.07 870.986 1186.93 866.853C1172.4 863.919 1162.8 855.919 1153.73 839.386C1148 828.986 1146.4 821.253 1145.47 800.052C1144.8 783.253 1144.4 781.386 1142.27 781.386C1139.47 781.386 1138.53 782.986 1129.6 801.519C1120.53 820.453 1107.73 839.386 1095.07 852.719C1082.8 865.519 1074 871.386 1058.27 877.119C1049.07 880.453 1045.2 880.986 1033.33 881.253C1023.07 881.386 1017.6 880.719 1012.67 878.986C1004.13 876.052 992.4 866.853 984.533 856.986C978.267 849.119 965.333 824.186 965.333 819.919C965.2 810.853 958.667 812.986 953.333 823.652C943.733 842.853 922 868.986 904.8 881.786C897.467 887.253 884.667 894.052 874.533 897.652C866.267 900.586 862.4 901.119 850.667 901.119C827.733 901.253 809.867 893.519 799.2 879.119C790.933 868.052 789.733 865.786 786.4 855.253C783.733 846.719 783.333 842.719 783.333 825.386C783.467 807.919 783.867 803.519 787.2 790.853C790.933 776.052 808.933 722.453 812 716.719C815.067 710.986 818.4 696.853 817.867 692.453C815.467 675.919 809.067 667.919 791.2 659.253C785.333 656.453 780.133 654.052 779.867 654.052C777.867 654.052 756.933 705.519 745.333 738.719C739.733 754.986 724.533 797.652 721.333 806.719C712.8 830.186 698.667 859.519 688.933 873.919C662 913.386 626.667 930.453 594.133 919.519C586.667 916.986 583.467 914.853 576.8 908.186C567.2 898.853 559.6 885.919 557.467 875.652C556.667 871.786 555.733 863.386 555.333 856.986C554.267 840.853 553.467 836.719 551.467 836.719C550.533 836.719 544.8 845.119 538.667 855.386C532.533 865.652 526.533 875.119 525.333 876.453C524.267 877.652 520.933 882.052 517.867 886.052C497.733 913.119 470 932.986 446.933 936.986C438.667 938.319 436.533 938.319 429.067 936.052C401.867 928.186 386.8 903.253 379.2 854.052C376.8 837.786 377.467 799.253 380.8 775.253C384.533 747.919 395.2 716.986 408.267 695.919C411.067 691.386 413.333 687.386 413.333 686.853C413.333 684.719 430.933 662.186 436.933 656.853C463.333 632.719 481.333 622.853 507.867 617.919C533.6 613.253 546.133 614.586 570.8 624.853C576.267 626.986 583.2 629.253 586.133 629.652C591.467 630.319 591.867 630.052 600.8 621.119C612.533 609.386 618.267 605.253 629.2 600.586C639.2 596.319 649.733 595.519 654.267 598.719C655.867 599.786 659.067 604.052 661.467 608.186C665.6 615.519 665.6 615.919 664.933 628.453C664 645.786 656.133 669.386 642.133 698.052C628.533 725.519 624.933 746.853 631.467 759.786C638.133 772.986 647.733 778.986 659.733 777.519C675.6 775.652 694.267 762.453 705.6 744.986C711.467 736.186 722.667 713.786 724.667 707.386C725.2 705.519 727.6 699.253 730 693.386C732.533 687.519 736.667 676.719 739.333 669.386C742.133 662.052 744.8 655.386 745.6 654.453C747.733 651.786 745.467 647.519 739.333 643.386C721.733 631.253 717.2 598.719 730.4 580.719C745.6 560.186 762 552.586 791.6 552.453C813.333 552.319 832.133 556.453 851.333 565.519C862.267 570.719 877.867 582.319 885.2 590.853C891.467 598.186 897.6 611.652 898.533 620.586C899.467 629.253 896.933 640.853 883.867 686.719C882.4 691.786 880.8 702.052 880.4 709.386C879.2 731.919 884.267 742.986 899.333 750.719C905.867 753.919 908.667 754.586 917.2 754.586C926 754.586 928.533 753.919 936.533 750.052C941.6 747.519 948 743.119 950.667 740.453C957.333 733.519 965.6 717.386 970.667 701.386C972.933 694.052 975.467 686.853 976.133 685.386C976.8 683.919 978.4 677.919 979.867 672.052C986.667 643.786 997.467 625.652 1024 597.919C1029.07 592.586 1046.4 579.119 1055.2 573.386C1090.13 551.119 1128.8 548.853 1157.47 567.386C1174 578.052 1180.27 577.519 1196.13 564.319C1206.8 555.386 1214.93 550.986 1224.27 548.719C1236.93 545.919 1248.8 548.186 1252 554.052C1254.27 558.186 1252.4 572.586 1247.87 586.052C1242.67 601.786 1237.6 615.519 1236 618.719C1232.53 625.652 1223.6 650.586 1221.2 660.052C1212.67 693.119 1223.33 719.119 1247.07 723.519C1258.8 725.652 1275.6 716.853 1285.87 703.253C1300.13 684.453 1307.73 662.586 1318.67 610.052C1320 603.786 1322.67 592.986 1324.53 586.052C1328.8 570.319 1328.53 571.252 1332.67 552.719C1334.53 544.319 1336.93 534.986 1338 532.052C1339.07 529.119 1339.87 525.652 1340 524.453C1340.27 514.186 1361.73 452.986 1371.73 434.052C1383.2 412.453 1398.67 394.853 1409.47 390.986C1417.33 388.186 1428.53 388.186 1434.93 390.986ZM315.333 473.386C329.867 476.719 343.867 484.319 354.133 494.319C371.333 510.986 382.667 541.786 382.8 572.319C382.933 587.652 378.533 606.453 372.133 617.119C365.333 628.986 343.6 648.586 333.467 652.186C327.467 654.186 320 652.186 315.2 647.253L311.6 643.386L314 632.853C320 606.453 311.467 575.519 296.4 569.252C289.6 566.319 276.133 566.586 268.933 569.786C255.6 575.652 247.867 586.319 242.533 605.652C237.333 624.586 240.933 638.319 257.067 661.786C272.267 683.919 272.8 684.586 282.133 695.119C286.933 700.319 293.333 707.919 296.4 711.786C299.333 715.519 302.667 719.519 303.6 720.586C306.667 723.519 320.267 744.586 327.867 757.786C333.733 767.786 336 773.652 339.733 788.453C344 804.853 344.533 808.586 344.533 824.052C344.533 850.719 339.467 872.319 328 895.652C310.667 930.586 286.8 956.719 259.333 970.453C238.133 980.986 218.667 985.119 189.333 985.119C170 985.253 165.467 984.719 152 981.653C129.2 976.186 105.867 966.453 93.7333 957.253C91.4667 955.519 89.2 954.053 88.6667 954.053C88.2667 954.053 87.2 953.386 86.2667 952.719C85.3333 951.919 81.4667 948.853 77.6 945.786C64.1333 934.986 50.6667 911.253 42.2667 883.386C36.1333 862.853 34.1333 848.719 35.0667 832.853C36.2667 814.586 45.2 779.786 52.4 765.519C61.6 746.853 80.5333 724.853 90.9333 720.319C113.467 710.453 112 710.853 126.667 710.853C137.867 710.719 141.867 711.253 146.4 713.253C153.067 716.319 153.333 718.186 148.4 725.652C146.267 728.586 142.267 734.586 139.467 738.853C128.4 755.386 125.2 774.186 130.4 792.719C135.333 810.319 146.133 822.052 162 826.719C172 829.786 189.067 830.719 197.467 828.719C206 826.719 218.533 819.386 224.133 813.119C239.733 795.253 242 766.453 230 738.719C224.533 726.319 218.133 713.786 213.733 707.119C207.2 697.386 193.733 679.786 192 678.719C189.067 676.853 176 657.786 170.933 647.919C164.533 635.386 161.867 625.652 160 607.919C158.533 594.853 158.8 588.453 161.467 568.719C163.2 555.786 164.4 551.919 171.733 536.719C179.867 519.919 191.6 508.319 211.067 497.652C234.533 484.986 262.533 475.252 288 470.986C293.2 470.186 306.533 471.252 315.333 473.386ZM1789.6 810.719C1794.53 820.186 1804 830.319 1813.73 836.319C1824.27 842.853 1826.67 843.919 1847.2 851.253C1848.93 851.919 1846.4 853.119 1838.53 855.119C1824.53 858.853 1815.2 864.186 1805.47 873.786C1796.13 883.119 1790.93 890.719 1786 902.319L1782.13 911.386L1778.4 901.386C1768.27 873.786 1750.53 859.519 1718.67 853.386L1710 851.786L1716 850.186C1724.53 847.786 1742.13 838.719 1750 832.719C1762.8 822.853 1777.33 803.386 1777.33 796.052C1777.33 794.853 1778 791.119 1778.8 787.919L1780.4 781.786L1783.33 792.986C1784.93 798.986 1787.73 807.119 1789.6 810.719ZM1941.33 895.253C1943.07 895.786 1946.53 898.719 1948.93 901.919C1952.27 906.319 1953.33 908.853 1953.33 913.253C1953.33 919.786 1953.2 920.319 1939.33 960.053C1933.73 976.186 1928.53 991.919 1927.87 995.119C1927.2 998.319 1925.47 1004.85 1924 1009.65C1922.53 1014.45 1920.93 1020.32 1920.67 1022.59C1920.27 1024.85 1919.33 1029.65 1918.67 1033.39C1914.27 1056.72 1914.4 1059.25 1919.2 1063.25C1922.8 1066.19 1927.47 1063.79 1940.4 1052.45C1959.6 1035.52 1980.8 1026.99 1998.8 1029.12C2007.73 1030.19 2025.07 1036.32 2031.2 1040.45C2037.07 1044.45 2048 1059.25 2052.93 1069.65C2060.8 1086.45 2064 1123.52 2061.33 1166.19C2059.33 1196.45 2059.47 1197.12 2067.73 1194.05C2075.07 1191.39 2085.33 1183.39 2094.13 1173.25C2105.07 1160.85 2107.87 1158.05 2109.73 1157.92C2110.67 1157.92 2112.27 1157.65 2113.47 1157.39C2117.6 1156.59 2126.67 1161.79 2128.13 1165.65C2130.27 1171.12 2128.8 1183.52 2125.07 1191.65C2121.33 1199.79 2108.67 1216.85 2099.2 1226.85C2088.13 1238.32 2068.67 1253.65 2058.8 1258.72C2051.73 1262.32 2036 1267.39 2032 1267.39C2027.73 1267.39 2025.33 1269.92 2021.6 1278.05C2015.2 1292.59 1985.6 1324.19 1968.4 1334.85C1948.53 1347.25 1922.13 1355.39 1902 1355.39C1890.13 1355.39 1866.53 1349.65 1857.6 1344.59C1842 1335.65 1836.27 1330.19 1824.67 1312.72C1813.33 1295.65 1808.13 1284.45 1805.2 1270.99C1804.27 1266.85 1802.93 1263.39 1802.27 1263.39C1801.47 1263.39 1796 1268.05 1790.13 1273.92C1782.8 1280.99 1776.27 1285.92 1770 1288.99C1759.07 1294.59 1756.53 1295.12 1736.93 1297.25L1722.13 1298.72L1716 1309.39C1707.87 1323.52 1700.93 1332.59 1689.2 1344.72C1677.6 1356.59 1672.4 1360.72 1659.47 1368.32C1638.93 1380.59 1619.47 1386.19 1598 1386.19C1583.73 1386.19 1575.07 1384.59 1564.13 1380.19C1534.4 1368.05 1514.53 1345.92 1502 1311.12C1496.27 1294.85 1494.93 1294.59 1484.53 1308.32C1480.27 1314.05 1475.73 1319.65 1474.67 1320.72C1473.6 1321.92 1468.8 1327.25 1464 1332.72C1438 1362.19 1402.8 1386.59 1368.27 1398.72C1352.67 1404.19 1346.53 1405.65 1332.53 1406.72C1302.93 1409.12 1276.4 1398.85 1256.4 1377.39C1248.27 1368.72 1245.07 1363.92 1238.8 1351.12C1234.67 1342.45 1230.53 1335.39 1229.73 1335.39C1228.8 1335.39 1226.27 1339.12 1224.27 1343.65C1215.07 1363.52 1200.93 1383.65 1184.27 1400.32C1170.93 1413.79 1162 1419.92 1149.33 1424.19C1133.07 1429.65 1121.33 1428.05 1107.2 1418.32C1093.33 1408.85 1085.47 1398.99 1080.13 1384.72C1074.4 1368.85 1073.33 1363.25 1074.4 1351.65C1076.27 1331.92 1073.2 1332.99 1058.13 1358.19C1032.67 1400.19 1011.33 1422.05 986.533 1431.52C954.267 1443.79 933.733 1441.39 916.533 1423.25C899.333 1404.99 892.133 1377.79 891.733 1328.99C891.467 1300.19 892.8 1287.52 898.667 1264.05C901.867 1251.65 901.6 1252.32 911.333 1227.39C923.467 1196.59 931.6 1182.05 946.533 1164.59C969.467 1137.65 980.267 1130.19 1009.33 1120.32C1025.6 1114.72 1030 1113.92 1042.27 1113.52C1055.07 1113.12 1062.8 1115.25 1077.47 1122.99C1093.73 1131.65 1097.87 1132.85 1105.87 1130.99C1110.93 1129.79 1113.2 1128.32 1118.4 1122.19C1126.53 1112.32 1129.87 1109.52 1138.67 1104.32C1145.2 1100.45 1147.07 1100.05 1156.67 1100.05C1169.33 1100.05 1173.73 1102.45 1178.4 1111.79C1183.2 1121.39 1182.13 1140.59 1175.6 1160.72C1173.87 1166.32 1170.4 1174.59 1159.2 1199.65C1154.4 1210.19 1150.13 1228.19 1148.67 1243.65C1147.6 1253.52 1150.27 1265.12 1154.8 1271.65C1161.47 1280.85 1175.47 1283.92 1189.87 1279.25C1198.27 1276.45 1214.53 1265.39 1218.93 1259.39C1222.27 1254.72 1225.87 1243.79 1229.87 1226.59C1235.6 1201.65 1248.93 1169.92 1261.73 1150.72C1273.47 1133.25 1294.8 1109.65 1305.33 1102.45C1334.8 1082.32 1355.2 1078.19 1398 1083.39C1410.8 1084.85 1414.53 1085.92 1423.33 1090.45C1435.47 1096.59 1444.8 1107.25 1452.4 1123.65C1463.2 1146.59 1463.33 1184.45 1452.67 1202.72C1442.13 1220.45 1420.8 1231.52 1396.67 1231.52C1383.87 1231.52 1377.07 1229.65 1372.93 1224.99C1370.67 1222.59 1370.93 1222.05 1376.8 1211.52C1381.87 1202.72 1383.07 1199.12 1383.6 1192.19C1384.53 1181.65 1382.4 1175.12 1376.53 1169.25C1370 1162.99 1361.33 1160.45 1351.73 1161.92C1338.93 1164.05 1332.93 1168.72 1321.87 1185.52C1313.07 1198.72 1310.93 1204.72 1310.13 1217.92C1309.33 1233.65 1315.87 1256.32 1325.33 1270.32C1336.93 1287.79 1362.93 1296.59 1394.67 1293.92C1424.93 1291.39 1448 1278.32 1483.07 1243.65C1497.33 1229.52 1505.87 1220.05 1506.53 1217.39C1510.67 1203.92 1522 1172.59 1525.33 1165.65C1549.73 1113.79 1581.2 1080.99 1619.33 1067.65C1642.93 1059.25 1665.87 1056.19 1681.6 1059.39C1695.33 1061.92 1708.53 1068.32 1716.13 1075.92C1730.13 1089.79 1747.07 1120.45 1752.67 1142.19C1755.73 1154.05 1756.4 1174.05 1754.53 1198.32C1752.53 1225.25 1752.53 1225.39 1764.27 1224.32C1769.6 1223.79 1774 1222.45 1778.67 1219.52C1790 1212.59 1801.6 1201.39 1805.47 1193.79C1809.2 1186.45 1816.93 1156.32 1820.8 1134.05C1822.67 1123.39 1824.67 1112.85 1825.47 1110.72C1826.8 1106.85 1829.87 1091.92 1831.2 1084.05C1832.8 1073.52 1844.13 1026.72 1847.2 1018.05C1848.4 1014.72 1849.33 1011.25 1849.33 1010.32C1849.33 1007.12 1866.8 964.453 1875.33 946.719C1882.67 931.386 1893.47 914.986 1901.07 907.786C1912.8 896.453 1928.27 891.652 1941.33 895.253ZM858.667 974.719C877.733 979.119 892.667 988.586 897.067 999.253C904.933 1017.79 907.2 1054.45 902.133 1080.72C899.333 1095.12 888.4 1143.12 884.667 1158.05C882.8 1164.99 879.6 1178.19 877.333 1187.39C875.2 1196.59 871.867 1209.39 870 1216.05C865.2 1233.25 854.8 1273.39 852.667 1282.72C845.733 1313.92 830.667 1359.12 819.333 1382.59C804.267 1413.79 786.533 1437.25 762.933 1456.99C734.8 1480.59 707.733 1490.72 660 1495.52C638.8 1497.65 618.4 1496.32 605.467 1491.92C578.667 1482.99 572.267 1479.39 558.8 1465.92C546.933 1453.79 541.2 1444.99 531.6 1423.39C520.133 1397.52 520.533 1365.12 532.8 1338.45C533.733 1336.19 534.667 1333.92 534.667 1333.52C534.667 1331.92 548.267 1310.72 552.267 1306.19C561.867 1295.39 580.8 1283.39 588.533 1283.39C595.867 1283.39 598.933 1286.05 602.667 1295.39C608 1309.12 610 1312.19 622.667 1324.72C628.533 1330.72 631.6 1332.59 638 1334.45C657.067 1339.92 668.133 1340.72 684.4 1337.52C689.733 1336.45 696.4 1335.25 699.333 1334.72C707.6 1333.39 721.2 1327.52 730 1321.52C739.867 1314.85 754 1300.99 759.867 1292.32C765.2 1284.59 780.8 1253.25 787.467 1236.99C796.267 1215.79 806.933 1183.65 816.133 1150.05C819.867 1136.45 824.8 1119.12 826.933 1111.39C830 1100.72 834.4 1084.19 836 1077.12C836.267 1075.65 824.8 1074.05 814.267 1074.05C798.4 1074.05 791.733 1075.52 778 1082.19C753.867 1093.65 737.867 1110.45 731.733 1130.72C724.4 1154.45 731.467 1177.12 749.067 1185.92C755.733 1189.39 760 1196.72 760 1205.39C760 1213.12 755.6 1228.59 751.2 1236.85C743.6 1250.72 728 1264.32 712.667 1270.32C696.8 1276.59 664.933 1276.85 646.533 1270.99C632 1266.32 616.667 1255.25 609.6 1244.05C598.133 1226.19 594.533 1211.65 595.333 1186.45C596.267 1158.05 600.133 1137.92 610 1110.99C615.733 1094.85 616.933 1092.72 627.733 1076.05C635.467 1064.05 650.4 1047.65 662 1038.05C666.4 1034.32 688.533 1018.32 692.667 1015.79C734 990.453 764.533 979.119 810 972.186C818.667 970.853 848.933 972.453 858.667 974.719ZM356.8 1032.85C360 1051.39 362.267 1060.85 366 1072.05C376.667 1103.52 385.2 1119.52 401.067 1137.79C406.267 1143.92 423.733 1156.19 432.667 1160.05C435.6 1161.25 439.2 1162.85 440.667 1163.52C450.8 1167.92 466.133 1172.99 478.267 1175.92C514.533 1184.59 521.467 1186.19 527.2 1186.85C530.667 1187.39 533.2 1187.92 532.933 1188.19C532.667 1188.45 522 1190.72 509.2 1193.25C482.133 1198.59 473.467 1200.59 460.533 1204.59C451.067 1207.52 430.667 1217.25 425.867 1221.12C424.533 1222.32 418.667 1226.85 413.067 1231.25C385.733 1252.72 366.933 1288.99 356.133 1341.39C353.867 1352.19 351.867 1361.39 351.6 1361.52C351.333 1361.79 350.133 1356.45 348.8 1349.65C343.2 1320.72 336.933 1302.72 320.267 1267.39C311.067 1248.05 303.2 1238.45 287.6 1227.65C282 1223.79 277.2 1220.72 276.8 1220.72C276.267 1220.72 273.467 1219.52 270.267 1218.19C247.2 1207.92 238.133 1204.99 199.467 1195.39C174.667 1189.25 168.533 1187.39 173.733 1187.39C182.133 1187.39 210 1182.45 229.467 1177.52C249.6 1172.32 254.4 1170.59 265.733 1164.19C272.933 1160.05 279.2 1156.72 279.467 1156.72C281.733 1156.72 300.533 1141.25 305.6 1135.25C312.267 1127.39 324.933 1108.19 328.267 1100.72C336.267 1083.12 344.133 1055.92 350.267 1025.12C351.6 1018.45 352.8 1013.12 353.067 1013.39C353.333 1013.52 354.933 1022.32 356.8 1032.85ZM1353.73 1493.39C1358.13 1505.65 1366 1520.19 1370.93 1525.52C1376.93 1532.05 1390 1540.85 1398.67 1544.19C1407.47 1547.52 1407.6 1548.19 1399.73 1550.72C1376.4 1558.32 1360.27 1573.12 1351.33 1595.52L1347.07 1605.92L1344.8 1595.65C1341.6 1582.19 1337.07 1573.79 1327.87 1564.72C1319.33 1556.45 1309.47 1550.85 1297.33 1547.52L1288.93 1545.25L1298.13 1541.25C1323.33 1530.59 1332.8 1522.32 1340.53 1503.92C1343.33 1497.39 1346.27 1488.19 1347.07 1483.39L1348.53 1474.72L1350.13 1481.39C1351.07 1484.99 1352.67 1490.45 1353.73 1493.39ZM884.8 1590.05C888.8 1607.52 898.667 1632.99 905.733 1643.52C921.333 1667.12 946.4 1680.72 984.933 1686.85C987.733 1687.25 990.533 1687.92 991.067 1688.32C991.6 1688.72 983.2 1691.92 972.4 1695.52C932.133 1708.99 910 1723.39 900.267 1742.72C892.8 1757.65 889.067 1766.99 885.467 1781.25C883.2 1789.92 881.333 1798.32 881.2 1799.92C881.2 1801.39 879.733 1796.05 878 1788.05C873.867 1768.19 867.067 1753.25 852.933 1732.32C838.133 1710.59 827.467 1704.19 790 1694.72C776.8 1691.39 766 1688.45 765.733 1688.32C765.6 1688.05 769.733 1686.72 775.067 1685.39C792.533 1680.85 816.267 1672.85 822.533 1669.25C838.133 1660.19 857.733 1641.25 862.933 1630.05C867.2 1620.85 878.133 1587.25 879.333 1579.65C879.867 1576.45 880.533 1574.19 880.933 1574.45C881.2 1574.85 882.933 1581.79 884.8 1590.05Z" fill="#5D5D81"/>
<path d="M1093.6 648.853C1084.67 652.719 1072.8 662.586 1068 670.053C1060.67 681.519 1055.6 698.053 1054.93 712.986C1054.4 724.719 1054.67 726.453 1057.73 732.986C1063.87 745.653 1070.13 750.053 1082.4 750.053C1090.27 750.053 1103.6 745.653 1108 741.653C1109.87 740.053 1114 736.586 1117.2 734.053C1126 727.253 1138.27 709.786 1141.33 699.786C1147.73 679.119 1143.6 662.053 1130.27 653.653C1126.4 651.253 1121.6 648.586 1119.6 647.653C1114 645.253 1100.27 645.786 1093.6 648.853Z" fill="#5D5D81"/>
<path d="M502.933 706.186C486.933 714.186 471.6 737.252 469.6 756.186C468.4 767.652 470.667 783.652 474.267 788.452C475.6 790.319 480 793.652 484 795.786C489.867 799.252 492.667 799.919 499.867 799.919C512 800.052 520.667 795.652 532.4 783.919C542.133 774.052 546.667 766.186 552.667 748.052C557.067 735.119 556.667 725.919 551.467 716.719C547.467 709.519 543.2 706.719 531.867 704.052C518.667 700.986 512.267 701.519 502.933 706.186Z" fill="#5D5D81"/>
<path d="M1936.67 1125.92C1918.8 1132.32 1910.93 1139.12 1903.6 1154.19C1895.2 1171.52 1894.27 1175.52 1895.07 1188.19C1896.27 1208.45 1904.67 1218.45 1920.53 1218.45C1933.33 1218.45 1956.13 1207.65 1964.27 1197.79C1973.47 1186.45 1980 1169.79 1980 1157.12C1980 1148.05 1975.2 1136.85 1969.2 1132.32C1959.73 1125.12 1946.13 1122.45 1936.67 1125.92Z" fill="#5D5D81"/>
<path d="M1635.33 1152.45C1610.27 1161.52 1591.87 1187.12 1591.73 1213.12C1591.73 1236.59 1606.93 1250.19 1628.93 1246.05C1643.87 1243.25 1657.33 1233.39 1667.33 1218.05C1675.07 1206.19 1678.67 1194.05 1678.67 1179.52C1678.67 1165.25 1676.4 1160.32 1667.6 1154.85C1659.33 1149.79 1645.47 1148.72 1635.33 1152.45Z" fill="#5D5D81"/>
<path d="M1027.33 1203.92C1000.13 1212.45 980 1247.25 985.2 1276.45C987.467 1289.25 992.533 1296.85 1001.6 1301.52C1007.87 1304.72 1009.6 1304.99 1018 1304.32C1030.13 1303.39 1036.8 1299.92 1047.07 1289.65C1060.67 1276.05 1068.53 1256.45 1068.53 1236.72C1068.4 1219.12 1062.8 1209.65 1049.87 1204.85C1041.6 1201.65 1035.2 1201.39 1027.33 1203.92Z" fill="#5D5D81"/>
</svg>
